<?xml version="1.0" encoding="utf-8"?>
<svg xmlns="http://www.w3.org/2000/svg" viewBox="0 0 1024 1024" width="1024" height="1024">
  <defs>
    <linearGradient id="bg" x1="0" y1="0" x2="1" y2="1">
      <stop offset="0%" stop-color="#0f2233"/>
      <stop offset="100%" stop-color="#0a1929"/>
    </linearGradient>
  </defs>
  <rect width="1024" height="1024" rx="200" ry="200" fill="url(#bg)"/>
  <g transform="translate(512,512) scale(2.8) translate(-128,-128)">
    <path d="M231.626,128a16.015,16.015,0,0,1-8.18262,13.96094L54.53027,236.55273a15.87654,15.87654,0,0,1-18.14648-1.74023,15.87132,15.87132,0,0,1-4.74024-17.60156L60.64746,136H136a8,8,0,0,0,0-16H60.64746L31.64355,38.78906A16.00042,16.00042,0,0,1,54.5293,19.44727l168.915,94.59179A16.01613,16.01613,0,0,1,231.626,128Z" fill="#4ec9b0"/>
  </g>
</svg>
